PathFileType	4	(X/Y/Z)	C:\Users\°ÂÌØÂü\Desktop\20210112\bx_n_0_902-Unnamed.trc
DataRate	CameraRate	NumFrames	NumMarkers	Units	OrigDataRate	OrigDataStartFrame	OrigNumFrames
50.00	50.00	       5	0	mm	50.00	313	       416
Frame#	Time	
		

313	6.240	-212.18813	95.67104	1554.84863	-803.86096	248.41304	568.58917	-426.74951	268.11948	1340.49536	-728.24530	66.32892	220.37126	-709.74774	-10.28638	804.48657	-420.43216	-87.00774	1327.18298	-802.61963	272.37454	737.50397	-676.28479	52.44835	160.79326	-733.49884	11.20185	523.84509	-822.33191	255.46849	630.60254	-712.23138	214.62489	796.07495	-744.96680	204.80371	536.50702	-828.20618	263.02094	490.66190	-517.83282	-72.87903	143.14296	-549.98944	-22.28557	162.17593	-795.84332	34.38848	172.75624	-717.64532	-11.47499	1015.16589	-601.57874	30.10324	166.50520	-773.62878	67.69434	566.23785	-797.87207	184.44934	181.62642	-769.30573	230.17471	202.96094	-590.40460	207.76581	173.75591	-882.61011	295.96603	144.63911	-554.04724	241.37396	165.61633	-652.13635	291.61624	156.16779	-614.66516	297.44482	158.58601	-528.17145	303.78638	146.38452	-772.51074	143.11166	569.58380	-793.86804	-75.68823	869.99152	-814.67389	-55.58207	477.83215	-763.64294	-22.73735	204.05646	-875.99792	-78.69180	141.55168	-505.68970	95.92424	1146.96753	-794.37476	-70.32357	751.63123	-788.04645	-42.06644	609.88367	-788.68750	-40.25632	563.52563	-721.11761	154.76437	221.35594	-676.92841	168.66202	161.52913	-605.62677	-71.53770	157.57014	-647.32605	-66.80293	161.79007																-819.61328	276.64075	872.82764				-904.94037	84.09719	1093.51147	
314	6.260	-220.81888	95.51192	1567.18909	-803.01215	248.41003	569.09985	-431.31940	268.07504	1348.54004	-728.31024	66.34391	220.49091	-707.54932	-10.21053	804.74908	-423.91940	-86.95062	1335.69482	-801.33246	272.50021	737.93231	-676.28479	52.44835	160.79326	-732.42377	11.20875	523.81085	-821.33417	255.63673	631.09344	-710.93311	215.67029	796.38983	-744.11884	204.87251	536.42157	-827.63348	262.99020	490.74863	-517.95313	-72.94166	143.09479	-549.94312	-22.16795	162.13477	-795.78796	34.24896	172.84453	-715.74664	-10.63109	1016.50092	-601.46771	29.95882	166.60756	-772.43469	67.30151	566.31708	-797.83264	184.36551	181.60533	-769.38281	230.09372	202.86546	-590.52386	207.82690	173.75781	-882.66272	296.04819	144.63293	-554.12659	241.65424	165.76581	-652.17505	291.56500	156.26036	-614.80182	297.53738	158.39064	-528.15552	303.96478	146.37450	-771.16724	143.55838	569.52570	-791.40491	-75.99060	869.98132	-813.79047	-55.58895	478.00687	-763.58173	-22.82457	204.10921	-875.95648	-78.79716	141.44162	-506.90344	96.53777	1153.72290	-793.26849	-69.88789	750.80176	-787.02179	-42.09980	610.06012	-787.19672	-40.14921	563.88171	-720.90082	154.87334	221.00975	-676.92841	168.66202	161.52913	-605.65387	-71.61961	157.47997	-647.31128	-66.82622	162.03464																-818.03857	276.92548	873.19537				-904.36603	84.14878	1092.48511	
315	6.280	-229.46196	95.42581	1579.59460	-801.71606	248.41249	569.50128	-435.96329	268.47830	1356.99524	-728.24530	66.32892	220.37126	-705.95526	-9.94350	804.94232	-428.27045	-87.09419	1343.88196	-800.12689	272.51010	737.73517	-676.08563	52.39468	160.81036	-731.05792	10.97948	523.92291	-820.95776	255.56677	631.12024	-709.43750	215.75208	796.46625	-743.33392	204.83267	536.89435	-826.93188	262.64310	490.92422	-517.94177	-72.92817	143.09164	-549.94128	-22.25578	162.24283	-795.69611	34.41407	172.92169	-714.21613	-10.74798	1017.80249	-601.34198	30.22013	166.41344	-770.94440	67.75032	566.34198	-797.78461	184.31670	181.65891	-769.04419	230.12302	203.08926	-590.34436	207.88148	174.02753	-882.76617	296.15231	144.72783	-553.91870	241.46623	165.75896	-652.05072	291.60266	156.50476	-614.93726	297.50229	158.37917	-528.05853	304.10474	146.51460	-770.70819	143.73433	569.65564	-789.60126	-75.74416	870.27722	-812.85138	-55.96930	478.64554	-763.58173	-22.82457	204.10921	-875.94281	-78.74004	141.14670	-507.64679	97.09784	1160.95520	-790.77393	-69.94312	751.81183	-785.53552	-42.06364	610.45880	-786.14026	-39.82862	563.94983	-720.73071	154.37801	221.22211	-676.69006	168.79225	161.10904	-605.53314	-71.70506	157.51195	-647.38440	-66.88387	161.90440																-816.94183	276.53885	873.13641				-903.65381	83.90744	1091.88599	
316	6.300	-238.71889	95.24168	1591.39417	-800.86395	248.37167	569.80902	-441.04813	269.10574	1365.12292	-727.87030	66.08797	219.93077	-704.10187	-10.22993	805.33093	-433.00864	-86.86824	1351.52417	-798.67529	272.18240	738.24347	-676.28479	52.44835	160.79326	-729.99762	11.20487	523.85577	-819.87854	255.40727	631.52924	-707.60852	217.19098	796.23444	-742.52887	205.19562	536.76111	-825.85413	262.57907	490.90292	-517.83282	-72.87903	143.14296	-549.94128	-22.25578	162.24283	-795.74207	34.44260	172.87434	-712.18799	-11.14652	1019.28613	-601.27032	30.13989	166.67657	-769.74615	68.11326	567.01825	-797.78613	184.17807	181.61734	-769.07385	229.93799	203.12863	-590.46759	207.92114	173.88878	-882.64905	296.11520	144.67395	-553.95972	241.47632	165.83044	-652.11487	291.69055	156.41566	-614.93726	297.50229	158.37917	-528.05792	303.93927	146.46251	-769.01117	143.21237	569.87671	-787.98517	-75.23926	870.47351	-811.93347	-55.57745	478.31500	-763.52380	-22.81573	204.18646	-875.87097	-78.64214	141.18979	-509.02292	97.65639	1167.74170	-788.59375	-70.60245	752.82281	-784.25488	-41.91026	610.53760	-784.70227	-39.97425	564.77509	-720.67542	154.60045	220.78326	-676.94104	168.58781	161.47079	-605.76849	-71.58135	157.57306	-647.31573	-66.70943	161.89778	-719.14575	230.89726	1040.36963													-815.22290	276.60297	873.52960				-902.55865	83.30466	1091.44861	
317	6.320	-248.28374	95.48984	1603.62268	-800.36700	247.93004	569.77301	-445.82883	269.62033	1372.85742	-727.88495	66.26251	219.92569	-702.01215	-10.07849	805.20007	-437.48795	-86.62696	1359.13611	-797.33673	272.32440	738.65643	-676.07855	52.49087	160.66132	-728.69647	11.28818	523.65131	-818.92151	255.12694	631.71637	-705.93579	217.40842	796.64758	-741.49915	205.17772	536.95129	-825.37170	262.44711	491.62961	-517.83282	-72.87903	143.14296	-549.93414	-22.44660	162.22977	-795.69611	34.41407	172.92169	-710.40936	-9.79807	1020.09576	-601.15649	30.29556	166.67905	-768.47955	67.84231	567.04974	-797.78613	184.17807	181.61734	-769.27112	229.90157	203.25301	-590.27411	207.89537	173.89960	-882.74231	296.04398	144.61772	-553.90625	241.59589	165.93320	-652.32288	291.53635	156.41670	-614.88153	297.52692	158.57758	-528.09338	303.84622	146.42937	-767.81635	142.93094	570.86798	-786.21356	-75.13168	870.79156	-810.52997	-55.81537	479.07056	-763.37665	-22.96395	204.34578	-876.00275	-78.74174	141.50209	-510.15668	97.88483	1173.99878	-786.86548	-70.43602	753.07275	-782.92010	-41.92042	610.82556	-783.55988	-40.05670	564.01031	-720.61365	154.69528	220.74232	-676.54999	168.83559	161.08374	-605.62024	-71.62124	157.52078	-647.30322	-66.75230	161.84386	-718.42548	231.51073	1042.31067													-813.97052	276.95328	874.11127				-902.01886	83.23402	1091.22583	
